<svg width="115" height="115" viewBox="0 0 115 115" fill="none" xmlns="http://www.w3.org/2000/svg">
<path d="M111.096 56.0445C110.939 55.6896 107.134 47.2488 98.6754 38.79C87.4045 27.5191 73.1687 21.5625 57.5 21.5625C41.8312 21.5625 27.5955 27.5191 16.3246 38.79C7.86581 47.2488 4.04296 55.7031 3.9037 56.0445C3.69936 56.5041 3.59378 57.0015 3.59378 57.5045C3.59378 58.0075 3.69936 58.5048 3.9037 58.9645C4.06092 59.3193 7.86581 67.7557 16.3246 76.2145C27.5955 87.4809 41.8312 93.4375 57.5 93.4375C73.1687 93.4375 87.4045 87.4809 98.6754 76.2145C107.134 67.7557 110.939 59.3193 111.096 58.9645C111.301 58.5048 111.406 58.0075 111.406 57.5045C111.406 57.0015 111.301 56.5041 111.096 56.0445ZM57.5 86.25C43.673 86.25 31.5935 81.2232 21.5939 71.3135C17.491 67.2332 14.0003 62.5805 11.2305 57.5C13.9995 52.4191 17.4903 47.7662 21.5939 43.6865C31.5935 33.7768 43.673 28.75 57.5 28.75C71.3269 28.75 83.4064 33.7768 93.406 43.6865C97.517 47.7652 101.015 52.4181 103.792 57.5C100.553 63.5465 86.4432 86.25 57.5 86.25ZM57.5 35.9375C53.2353 35.9375 49.0664 37.2021 45.5205 39.5714C41.9746 41.9408 39.2108 45.3084 37.5788 49.2484C35.9468 53.1884 35.5198 57.5239 36.3518 61.7066C37.1838 65.8894 39.2374 69.7314 42.253 72.747C45.2686 75.7626 49.1106 77.8162 53.2934 78.6482C57.4761 79.4802 61.8116 79.0532 65.7516 77.4212C69.6916 75.7891 73.0592 73.0254 75.4286 69.4795C77.7979 65.9335 79.0625 61.7647 79.0625 57.5C79.0565 51.7831 76.7829 46.302 72.7404 42.2596C68.698 38.2171 63.2169 35.9434 57.5 35.9375ZM57.5 71.875C54.6569 71.875 51.8776 71.0319 49.5137 69.4524C47.1497 67.8728 45.3072 65.6278 44.2192 63.0011C43.1312 60.3744 42.8465 57.4841 43.4012 54.6956C43.9559 51.9071 45.3249 49.3457 47.3353 47.3353C49.3457 45.325 51.9071 43.9559 54.6956 43.4012C57.484 42.8465 60.3744 43.1312 63.0011 44.2192C65.6278 45.3072 67.8728 47.1497 69.4524 49.5137C71.0319 51.8776 71.875 54.6569 71.875 57.5C71.875 61.3125 70.3605 64.9688 67.6646 67.6647C64.9688 70.3605 61.3125 71.875 57.5 71.875Z" fill="url(#paint0_linear_1_44)"/>
<defs>
<linearGradient id="paint0_linear_1_44" x1="57.5" y1="21.5625" x2="57.5" y2="93.4375" gradientUnits="userSpaceOnUse">
<stop stop-color="white"/>
<stop offset="1" stop-color="white" stop-opacity="0"/>
</linearGradient>
</defs>
</svg>
