<svg width="94" height="94" viewBox="0 0 94 94" fill="none" xmlns="http://www.w3.org/2000/svg">
<path d="M46.5355 3.19568C22.7216 3.19568 3.38492 22.538 3.38492 46.352C3.38492 70.1654 22.7217 89.5075 46.535 89.5075C70.3484 89.5075 89.6911 70.1654 89.6911 46.352C89.6911 22.538 70.3485 3.19568 46.5355 3.19568ZM67.5394 12.6221C78.7837 19.6336 86.2604 32.1088 86.2604 46.352C86.2604 49.4993 85.8945 52.5616 85.2048 55.4968L78.9167 52.1811L82.9557 62.2556C81.22 66.2298 78.8502 69.8622 75.9792 73.0302L68.0556 67.3505L56.1909 76.1116L44.8712 77.3907L42.3182 69.7201L33.1899 74.6485L20.6884 71.1716L22.3696 77.8901C17.1537 73.889 12.9641 68.6248 10.2524 62.5484L14.917 55.8988L20.8379 59.0427L31.7103 57.2297L32.2323 49.7193L25.3761 49.4038L26.2767 46.1278L31.9277 41.4805L27.3208 38.6118L39.6619 31.5264L31.3369 26.0816L19.1049 33.4596L10.0286 30.6543C12.5644 24.7536 16.493 19.5983 21.3942 15.5879L20.7057 23.7349L28.6693 17.4699L41.888 21.5494L37.7572 16.5176L42.7773 13.8728L47.7 19.0993L60.7352 20.9068L60.0926 14.5783L67.7059 16.9021L67.5397 12.6221H67.5394ZM67.7516 34.6589L51.0391 36.6215L56.346 44.556L56.9254 56.392L62.2842 58.9336L64.3841 53.7242L75.8874 62.6571L72.6627 53.9766L73.8392 45.101L65.807 40.9297L67.7518 34.6591L67.7516 34.6589ZM40.5742 35.3305L34.7738 39.2204L41.4694 41.934L44.5329 39.2204L40.5742 35.3303V35.3305ZM44.6478 61.8943L48.0786 71.5502L51.7101 63.7357L44.6478 61.8943Z" fill="url(#paint0_linear_1_38)"/>
<defs>
<linearGradient id="paint0_linear_1_38" x1="46.538" y1="3.19568" x2="46.538" y2="89.5075" gradientUnits="userSpaceOnUse">
<stop stop-color="white"/>
<stop offset="1" stop-color="white" stop-opacity="0"/>
</linearGradient>
</defs>
</svg>
